<svg xmlns="http://www.w3.org/2000/svg" width="20" height="20" viewBox="0 0 20 20">
    <g fill="none" fill-rule="evenodd">
        <g fill="#222F50" fill-rule="nonzero">
            <g>
                <g>
                    <g>
                        <path d="M0 2.018V9.96c0 1.094.893 1.987 1.987 1.987h6.42c1.094 0 1.987-.893 1.987-1.987V8.674c0-.218-.176-.394-.394-.394-.218 0-.394.176-.394.394V9.96c0 .662-.54 1.203-1.203 1.203H1.987c-.662 0-1.203-.54-1.203-1.203V2.018c0-.663.54-1.204 1.203-1.204h6.42c.662 0 1.203.541 1.203 1.204v1.286c0 .218.176.394.393.394.218 0 .394-.176.394-.394V2.018C10.397.923 9.504.03 8.41.03H1.987C.893.03 0 .92 0 2.018z" transform="translate(-119 -36) translate(0 -24) translate(119 60) translate(2 4)"/>
                        <path d="M12.333 8.949c.077.077.176.115.278.115.103 0 .202-.038.279-.115l2.684-2.685c.154-.154.154-.4 0-.554L12.89 3.026c-.154-.154-.4-.154-.554 0-.154.153-.154.4 0 .553l2.016 2.016H6.995c-.217 0-.393.176-.393.394 0 .217.176.393.393.393h7.354l-2.016 2.016c-.154.15-.154.4 0 .55z" transform="translate(-119 -36) translate(0 -24) translate(119 60) translate(2 4)"/>
                    </g>
                </g>
            </g>
        </g>
    </g>
</svg>
